<?xml version="1.0" encoding="UTF-8"?>
<svg id="a" data-name="メインイメージ" xmlns="http://www.w3.org/2000/svg" viewBox="0 0 626.481 545.248">
  <path d="M620.813,160.979c3.13,0,5.669,2.537,5.669,5.669v334.455c0,1.536-.621,2.956-1.723,3.939-1.058.942-2.472,1.403-3.938,1.293.026-.028-64.974-7.331-129.965-8.966-58.76-2.296-117.507.041-128.193.473v.527c0,3.116-2.502,6.268-5.603,6.934-28.893,6.113-58.747,6.113-87.639,0-3.101-.666-5.602-3.817-5.603-6.934v-.527c-10.688-.434-69.434-2.769-128.192-.473-64.991,1.636-129.992,8.938-129.965,8.966-1.468.109-2.879-.352-3.938-1.293C.621,504.061,0,502.639,0,501.103V166.648C0,163.516,2.538,160.978,5.669,160.979h615.144Z" fill="#725254"/>
  <path d="M311.911,158.599c-96.499-18.778-196.975-19.06-293.594-.847-3.342.63-5.754,3.566-5.754,6.967v318.655c0,4.419,4.003,7.773,8.349,6.969,95.822-17.722,195.363-17.278,290.998,1.332.879.171,1.782.171,2.661,0,95.635-18.61,195.177-19.053,290.998-1.332,4.346.804,8.349-2.55,8.349-6.969V164.718c0-3.4-2.412-6.337-5.754-6.967-96.619-18.213-197.095-17.931-293.594.847-.879.171-1.782.171-2.661,0Z" fill="#c8b6bb"/>
  <path d="M311.235,150.979c-89.837-26.711-187.378-30.808-279.385-11.815-3.279.677-5.62,3.586-5.62,6.935v323.578c0,4.468,4.084,7.816,8.466,6.942,91.127-18.172,186.482-11.237,276.593,14.749,1.276.368,2.627.368,3.903,0,90.111-25.986,185.466-32.921,276.593-14.749,4.382.874,8.466-2.474,8.466-6.942V146.099c0-3.349-2.34-6.258-5.62-6.935-92.007-18.993-189.548-14.896-279.385,11.815-1.31.39-2.702.39-4.012,0Z" fill="#ded8dd"/>
  <path d="M310.524,143.163c-83.222-34.491-177.772-42.336-265.147-22.589-3.214.726-5.479,3.608-5.479,6.903v328.482c0,4.523,4.176,7.866,8.599,6.918,86.424-18.54,177.557-5.218,262.157,28.034,1.665.654,3.511.654,5.176,0,84.599-33.252,175.733-46.574,262.157-28.034,4.423.949,8.599-2.394,8.599-6.918V127.477c0-3.295-2.266-6.177-5.479-6.903-87.374-19.747-181.925-11.902-265.147,22.589-1.742.722-3.693.722-5.435,0Z" fill="#fff"/>
  <path d="M313.241,465.153c-1.174,0-2.126-.952-2.126-2.126V173.209c0-1.174.952-2.126,2.126-2.126s2.126.952,2.126,2.126v289.818c0,1.174-.952,2.126-2.126,2.126Z" fill="#ded8dd"/>
  <path d="M343.809,65.759l-88.274-18.763c-3.063-.651-6.073,1.304-6.724,4.367l-52.292,246.016c-.651,3.063,1.304,6.073,4.367,6.724l88.274,18.763c3.063.651,6.073-1.304,6.724-4.367l52.292-246.016c.651-3.063-1.304-6.073-4.367-6.724ZM303.543,83.726c-1.088,5.117-6.118,8.384-11.235,7.296-5.117-1.088-8.384-6.118-7.296-11.235,1.088-5.117,6.118-8.384,11.235-7.296,5.117,1.088,8.384,6.118,7.296,11.235Z" fill="#e6e6e6"/>
  <polygon points="300.828 80.019 289.001 77.505 303.301 0 319.288 3.398 300.828 80.019" fill="#c6a4bf"/>
  <path d="M506.42,384.132c1.843-4.655,21.252-6.729,23.415-2.894,1.935,3.431,1.821,13.923.049,16.913-4.344,7.332-24.874,7.316-25.356-.741-.323-5.398.697-10.262,1.892-13.278Z" fill="#845d5f"/>
  <path d="M463.7,380.93c4.078-2.905,17.456-1.733,19.625,2.099,1.878,3.319-.956,16.348-6.691,18.06-7.482,2.234-21.559,1.021-21.635-5.376-.063-5.289,4.891-12.07,8.701-14.784Z" fill="#845d5f"/>
  <path d="M464.333,96.146c30.352-4.484,67.602,5.174,86.226,60.703,11.938,35.593-2.759,41.735,17.498,65.187,13.311,15.411-6.975,41.519-22.467,40.692,3.02-5.205,3.02-11.622-1.29-18.369-7.479,23.103-11.881,17.281-26.604,11.699-8.367,14.049-24.255,4.043-24.255,4.043-3.565-25.933.175-57.401-44.192-66.274s-71.076,1.382-71.076-34.65,48.588-69.782,86.16-63.031Z" fill="#c6a4bf"/>
  <path d="M423.065,204.966c-20.331,13.905-18.627,25.319-16.776,36.585,3.492,21.255,20.944,25.791,35.17,29.308,5.981-23.014-18.393-65.893-18.393-65.893Z" fill="#9a72a3"/>
  <path d="M494.783,343.181c-.858-6.581,27.822-12.166,29.276-5.35,2.155,10.104,5.663,40.376,5.439,47.226-.295,9.04-23.379,9.644-23.49.602-2.864-12.2-9.997-33.059-11.225-42.478Z" fill="#725254"/>
  <path d="M457.249,345.041c-.474-5.07,29.728-9.555,29.728-2.586,0,10.36-2.205,30.506-4.213,43.185-1.458,9.206-24.428,5.865-22.126-1.729.445-9.779-2.445-28.771-3.39-38.869Z" fill="#725254"/>
  <path d="M498.876,238.976c5.349-6.066,36.499,37.15,35.016,41.971s-16.689,6.717-27.815,7.438c-11.126.721-13.654-42.092-7.201-49.409Z" fill="#725254"/>
  <path d="M447.556,328.367c-3.47,3.665-3.552,34.183,0,38.74,3.552,4.558,20.626-4.558,26.662-6.457.431,4.178,3.26,4.937,8.812,2.659s12.535-5.571,16.522-6.365c.116,1.589.468,4.846,4.927,4.086s11.861-6.077,16.025-7.976c.813,2.516,1.423,4.362,6.778,2.809,5.844-1.694,14.88-5.738,17.093-9.407s-12.135-27.11-15.423-33.336c-6.7-3.021-31.118.813-42.221,3.471s-31.624,3.798-39.175,11.774Z" fill="#845d5f"/>
  <path d="M435.842,249.298c10.932-9.31,23.1-3.656,24.75,4.623,1.975,9.91-11.185,21.613-13.204,27.163s-15.163,28.967-23.922,33.873c-13.334,7.468-21.051,5.706-28.762-2.598-3.872-4.169-17.765-10.452-14.548-18.715,5.987-15.38,27.304-16.942,35.367-24.923,6.39-6.325,11.653-12.041,20.32-19.422Z" fill="#845d5f"/>
  <polygon points="450.006 244.484 479.791 245.109 452.393 268.314 450.006 244.484" fill="#f1cdc2"/>
  <path d="M442.099,269.556c4.153-6.661,55.517-28.321,62.58-17.436,3.985,6.141,29.817,62.631,29.784,65.442-6.659,4.455-76.73,21.898-88.954,18.373-2.428-14.953-9.948-55.891-3.41-66.379Z" fill="#845d5f"/>
  <path d="M424.163,232.427c.077,0,.36-.196.386-.21.308-.173.615-.35.921-.527s.612-.354.916-.534c.082-.048.29-.229.375-.229-.077,0-.36.196-.386.21-.308.173-.615.35-.921.527s-.612.354-.916.534c-.082.048-.29.229-.375.229h0Z" fill="#845d5f"/>
  <path d="M451.554,248.216c4.133,2.805,15.46,19.039,13.344,22.642-2.554,4.35-38.042-9.857-36.258-15.119,1.449-4.276,16.001-12.214,22.914-7.523Z" fill="#725254"/>
  <path d="M522.198,181.286c14.576-1.257,21.954,12.265,16.057,23.684-6.03,11.676-11.17,17.736-20.028,16.582-10.182-1.327-12.394-8.941-12.394-17.488,0-4.707,1.606-21.505,16.365-22.778Z" fill="#fdede4"/>
  <path d="M520.303,215.187c-.302,0-.63-.023-.977-.068-2.677-.349-4.989-.65-4.989-9.055,0-.512.053-5.122,1.887-9.161,1.902-4.188,4.456-4.95,6.704-5.144.385-.033.767-.05,1.134-.05,3.074,0,5.391,1.135,6.699,3.283,1.393,2.287,1.369,5.306-.062,8.076-5.5,10.651-8.247,12.119-10.396,12.119Z" fill="#f1cdc2"/>
  <path d="M458.739,137.77c-46.96,0-74.488,20.014-64.5,62.566,5.556,23.672-1.398,27.146,8.495,37.576s29.739,14.208,45.061,14.208c30.644,0,71.378-13.771,71.378-55.063s-15.039-59.287-60.434-59.287Z" fill="#fdede4"/>
  <circle cx="494.934" cy="215.602" r="13.068" fill="#fbdad1"/>
  <circle cx="412.395" cy="224.7" r="13.068" fill="#fbdad1"/>
  <path d="M426.164,192.692c.968.052,1.945.152,2.931.298,5.82.642,6.715-7.859.904-8.456-5.231-.409-11.022.207-15.908,2.573-6.587,3.236-12.524,8.685-13.936,16.105-.448,2.671-1.162,8.329,3.014,8.158,1.597-.168,2.732-1.642,2.504-3.228-.488-4.966,3.4-9.826,7.644-12.227-2.961,4.569-4.081,11.415-2.364,16.242,2.727,7.667,6.012,7.135,11.408,6.174,8.527-1.52,11.709-6.373,10.963-13.715-.466-4.584-3.308-9.459-7.16-11.923Z" fill="#845d5f"/>
  <path d="M448.812,130.291c17.181-2.309,36.322,3.119,49.332,18.407,13.01,15.288,12.096,18.61,11.381,30.851-16.293,4.098-42.634-7.782-48.518-19.706-5.329,14.805-23.798,26.084-34.123,28.729.074-9.971,2.274-15.87,6.405-24.277-6.404,10.737-14.518,17.493-29.686,23.55-8.714-29.678,16.085-53.639,45.21-57.553Z" fill="#c6a4bf"/>
  <path d="M436.131,230.59c-1.955,0-4.004-.288-6.083-.884-1.062-.304-1.676-1.412-1.372-2.474.305-1.062,1.415-1.676,2.474-1.371,6.32,1.811,12.163.181,14.542-4.06.306-.546.851-.917,1.471-1.003.617-.083,1.244.124,1.688.567,3.788,3.788,11.519,5.227,17.401.949.893-.651,2.145-.452,2.793.441.65.894.452,2.144-.441,2.794-6.224,4.526-14.918,4.478-20.794.175-2.686,3.144-6.897,4.865-11.678,4.865Z" fill="#845d5f"/>
  <path d="M405.796,158.814c15.656-10.289,27.634-12.268,45.011-12.536,20.502-.316,35.121,2.71,51.178,10.03-8.726-18.827-26.71-29.311-50.433-28.553-23.135.739-44.262,11.544-45.756,31.059Z" fill="#725254"/>
  <path d="M481.041,120.611c7.032,17.159,9.759,24.453,13.673,45.56,4.581,24.707,7.605,41.894.327,48.706,7.999,2.129,13.85-.35,17.885-8.464-1.037,3.294-.95,4.934-.369,7.209,14.018-4.026,19.409-18.676,10.507-49.157-6.608-22.626-20.062-34.683-42.022-43.854Z" fill="#c6a4bf"/>
  <path d="M466.219,273.899c9.542,3.251,18.396,34.127,16.189,45.785-25.708-3.719-30.559-26.107-16.189-45.785Z" fill="#fffcfb"/>
  <path d="M502.138,194.123c-1.723-4.55-5.492-8.305-9.403-10.898-5.884-4.259-13.236-6.112-20.487-5.48-4.85.418-9.876,2.169-13.896,5.584-1.77,1.465-1.933,4.16-.347,5.825,1.518,1.606,4.051,1.677,5.657.159.651-.617,1.359-1.165,2.11-1.648-2.11,2.915-3.223,6.668-3.223,10.235,0,10.007,4.661,15.34,13.347,15.341,10.863.002,12.784-4.915,12.986-14.651.1-4.82-2.068-9.614-5.386-12.712.218.066.44.127.654.199,3.512,1.235,7.015,3.442,9.665,5.916,2.607,2.513,4.106,5.865,4.608,9.737.528,3.401,5.505,2.872,5.303-.565-.194-2.337-.658-4.737-1.589-7.043Z" fill="#845d5f"/>
  <path d="M420.234,123.124c-7.235,16.219-10.09,25.472-14.782,45.129-5.833,24.442-7.429,49.068-5.658,55.755-5.358,2.302-11.435-.599-13.088-7.437-1.581,5.126-2.252,6.209-5.458,9.119-10.922-4.278-17.8-33.55-9.309-55.54,8.159-21.131,30.795-41.534,48.295-47.027Z" fill="#c6a4bf"/>
  <path d="M478.78,238.548c12.803-10.904,27.054-4.282,28.986,5.414,2.313,11.607-13.1,25.313-15.464,31.813s-17.758,33.925-28.017,39.671c-15.617,8.747-24.654,6.683-33.686-3.042-4.534-4.883-20.806-12.241-17.039-21.919,7.012-18.013,31.978-19.843,41.421-29.19,7.483-7.407,13.648-14.102,23.798-22.747Z" fill="#845d5f"/>
  <path d="M484.215,205.693c.19,2.005-3.05,3.953-7.236,4.35s-7.735-.906-7.926-2.912,3.07-3.955,7.236-4.35,7.735.906,7.926,2.912Z" fill="#9d7c83"/>
  <path d="M430.181,210.272c.357,1.979-2.703,4.188-6.835,4.933s-7.771-.254-8.128-2.233,2.98-4.238,6.835-4.933,7.771.254,8.128,2.233Z" fill="#9d7c83"/>
  <ellipse cx="473.561" cy="198.931" rx="4.096" ry="5.417" fill="#fffcfb"/>
  <ellipse cx="420.599" cy="204.966" rx="3.5" ry="4.629" fill="#fffcfb"/>
  <path d="M407.277,371.686c-30.023,10.928-36.119-41.983-40.339-63.444-4.219-21.462-12.484-50.617-20.277-74.362-8.154-24.845-16.507-48.287-26.99-71.062-10.483-22.775-12.57-31.829-1.471-35.868,11.099-4.04,15.32,4.237,21.929,28.422,6.609,24.185,15.279,47.512,25.002,71.786,9.293,23.199,21.703,50.846,32.266,69.998s39.903,63.603,9.88,74.531Z" fill="#9d7c83"/>
  <path d="M414.58,376.653l-9.704,3.532c-4.413,1.606-9.293-.669-10.9-5.083l-1.622-4.455,25.687-9.349,1.622,4.455c1.606,4.413-.669,9.293-5.083,10.9Z" fill="#845d5f"/>
  <path d="M426.03,389.871c-3.343-5.827-8.455-3.781-8.626-6.496-.171-2.715,3.33-2.519,1.205-5.666l1.854-.675c.736-.268,1.115-1.081.847-1.817l-.812-2.23c-.268-.736-1.081-1.115-1.817-.847l-19.849,7.225c-.736.268-1.115,1.081-.847,1.817l.812,2.23c.268.736,1.081,1.115,1.817.847l1.854-.675c.395,3.777,2.951,1.376,4.565,3.566,1.614,2.19-3.617,3.909-2.433,10.521,2.152,12.016,11.355,18.827,21.131,28.932.367.38.84.522,1.288.476l-4.427-12.164c-1.095.199-2.206-.413-2.6-1.494-.332-.911-.059-1.894.614-2.511-1.303-2.56-5.523-10.851-5.523-10.851-1.453-3.229,3.487-5.033,4.454-1.621l2.744,11.863c.912.041,1.753.618,2.084,1.529.393,1.081-.064,2.263-1.031,2.815l4.427,12.164c.372-.253.643-.665.68-1.192.993-14.025,3.664-25.158-2.41-35.746Z" fill="#d3d3d4"/>
  <path d="M428.711,307.141c5.014,6.966-.989,18.418-7.954,23.432-6.966,5.014-18.332.355-20.307-9.492-1.022-5.096,6.401-8.567,1.162-11.861-4.183-2.63-1.254-9.4,7.324-9.824s14.761.78,19.775,7.745Z" fill="#fdede4"/>
  <path d="M410.917,297.766c4.386-3.563,9.602-5.647,13.38-7.505,8.056,1.986,16.374,12.479,18.528,18.565-3.012,4.737-7.64,8.946-11.743,11.285-6.4-3.778-15.011-11.541-20.164-22.345Z" fill="#9d7c83"/>
  <path d="M462.708,386.218c1.659-2.191,10.958-.591,11.913,1.237.592,1.132.164,3.306-1.077,4.871-1.169,1.474-2.897,2.618-4.407,3.1-2.446.781-6.865-.153-7.905-1.359-.624-.724.92-2.327,1.075-4.089.14-1.591-.758-2.226.402-3.759Z" fill="#9d7c83"/>
  <path d="M511.799,387.084c1.792-2.191,10.712-1.94,11.744-.112.639,1.132.766,2.811-.086,4.842-.735,1.754-.576,3.44-2.083,4.414-1.59,1.027-8.995,1.017-10.119-.189-.674-.724-.188-2.542-.021-4.305.151-1.591-.689-3.118.565-4.651Z" fill="#9d7c83"/>
  <path d="M509.652,393.338c3.238-1.767,10.15-1.767,15.888,0-.39,1.348-.559,3.392-.559,3.392-5.428-2.359-12.211-2.213-15.029-.416-.13-.872-.3-2.976-.3-2.976Z" fill="#845d5f"/>
  <path d="M460.058,391.031c3.979-1.254,12.083-.562,16.159,2.413-.39,1.348-1.861,2.913-1.861,2.913-4.151-2.459-11.251-3.584-14.909-1.618-.13-.872.611-3.708.611-3.708Z" fill="#845d5f"/>
  <path d="M464.337,96.145c-10.55-1.9-21.98-.6-32.95,3.05-3.64,3.58-6,7.78-6.73,12.46-1.043,6.713,1.428,13.493,6.515,19.641,6.254-2.117,13.222-3.312,20.385-3.541,14.54-.47,26.92,3.29,36.33,10.61,1.48,4.33,2.72,8.66,3.95,13.83-12.214-4.281-24.513-6.098-40.275-5.925,7.465,3.518,16.107,6.198,25.485,7.655,30.43,4.74,57.48-5.06,62.24-22.05-20.1-33.49-49.88-39.43-74.95-35.73Z" fill="#d1b4c8"/>
  <path d="M150.289,474.647c1.377-6.492,24.308-5.403,24.891,1.541.633,7.547,3.235,43.901,2.227,51.691-.696,5.371-17.171,5.077-21.513-1.126-4.342-6.202-7.775-41.873-5.605-52.107Z" fill="#e6e6e6"/>
  <path d="M113.255,474.193c1.551-4.85,24.374-7.342,24.616-.377.377,10.829-1.997,51.817-4.167,56.779s-20.412,3.193-22.585-4.06c-2.839-9.475-1.05-42.378,2.136-52.342Z" fill="#e6e6e6"/>
  <path d="M189.821,448.777c1.527-.491,2.66-.977,3.311-1.446-.881-11.642-7.495-64.623-10.224-79.478-3.011-16.394-72.249-18.087-77.272-9.418-7.341,12.67-14.545,65.266-12.193,87.462-4.01,16.99-9.754,58.298-8.68,61.349,1.282,3.642,18.329,2.192,24.478-.487,0,1.589-.822,5.426,6.709,4.031,6.398-1.185,16.544-2.32,21.347-3.043.552,3.513,3.137,4.703,8.712,2.893,4.44-1.441,14.653-3.601,18.895-6.281.67,4.308,3.994,3.804,10.037,2.969,6.291-.869,20.964-2.782,22.107-8.312.96-4.642-3.54-32.989-7.23-50.238Z" fill="#845d5f"/>
  <path d="M109.706,260.871c21.876-11.45,50.925-17.055,67.185-5.541,14.664,10.383,15.082,37.848,16.811,41.982,3.519,8.412,6.7,2.762,9.214,5.819,4.19,5.095,4.002,22.223-.576,30.01-7.289,12.397-27.394,28.452-48.206,30.137-30.544,2.473-59.971-1.685-70.477-21.855-19.076-36.621-14.169-59.501,26.05-80.552Z" fill="#fdede4"/>
  <path d="M152.333,360.128c9.1-1.823,20.509-3.73,27.532-5.245,5.639-1.216-11.224,18.732-11.224,18.732,0,0-20.58-12.631-16.308-13.487Z" fill="#9d7c83"/>
  <path d="M180.554,409.717c-12.524,11.224-32.941-11.793-33.155-21.676-.256-11.832,32.282-37.541,36.987-42.611,10.274-11.072,26.025-26.443,39.558-30.09,3.793-2.088,10.206,9.673,12.188,11.47,4.937,4.476,13.2,5.845,9.289,17.114-6.338,18.261-15.367,21.093-40.03,39.256-8.478,6.244-14.994,17.718-24.836,26.539Z" fill="#845d5f"/>
  <path d="M101.458,364.975c2.342-5.849,66.133-6.559,66.069-4.139-.282,10.738-2.578,44.788-4.391,51.092-13.933,4.309-56.748,2.5-68.973-.251-.008-9.827,3.603-37.481,7.295-46.702Z" fill="#9d7c83"/>
  <path d="M220.761,318.562c4.381-4.568,7.585-7.506,11.214-9.639,8.181,1.382,20.903,13.078,23.503,18.987-3.797,4.721-7.651,8.971-12.024,10.744-7.328-1.773-19.147-7.682-22.692-20.092Z" fill="#9d7c83"/>
  <path d="M265.306,308.455c0,7.917-10.699,16.849-18.615,16.849-5.117,0-13.281-6.507-14.262-12.413-.738-4.443,1.047-11.105,2.514-15.017,1.545-4.12,7.667-1.709,6.374,2.412-.774,2.468,3.113.201,4.543-1.382,7.429-8.223,19.446,1.635,19.446,9.552Z" fill="#fdede4"/>
  <path d="M183.609,291.237c-3.604-1.847-7.735-2.985-11.951-3.039-13.29-.355-25.336,9.547-27.05,22.863-.515,5.766,7.891,6.552,8.467.808.186-2.801,1.273-5.769,2.968-8.331,1.345-2.061,3.063-3.781,5.02-5.144-1.567,4.146-1.057,9.634,1.529,14.436,4.555,8.459,13.635,5.025,18.091,1.858,4.07-2.893,1.943-5.133,1.034-11.816-.42-3.087-1.591-5.604-3.26-7.449.936.254,1.862.559,2.759.952,1.354.572,2.944.01,3.625-1.321.714-1.394.163-3.104-1.231-3.818Z" fill="#845d5f"/>
  <path d="M180.428,309.59c.647,1.904-1.254,4.272-4.246,5.288-2.992,1.016-5.941.297-6.588-1.607s1.454-4.34,4.246-5.288c2.791-.948,5.941-.297,6.588,1.607Z" fill="#9d7c83"/>
  <ellipse cx="175.502" cy="303.014" rx="2.872" ry="4.629" transform="translate(-71.318 54.623) rotate(-14.739)" fill="#fffcfb"/>
  <path d="M190.242,327.309c-3.055,0-6.161-.644-8.503-2.105-.937-.584-1.223-1.818-.638-2.755.584-.937,1.819-1.224,2.755-.638,3.495,2.181,10.121,1.817,13.094-.008.941-.578,2.173-.282,2.75.658.578.941.283,2.173-.658,2.751-2.152,1.322-5.445,2.098-8.8,2.098Z" fill="#845d5f"/>
  <path d="M154.786,232.398c-19.119-8.807-43.148-8.639-57.013-1.613-17.071-.022-35.974,4.801-47.463,13.526-32.439,24.635-40.057,57.65-27.861,93.753,11.808,34.953-19.636,43.701-11.101,80.21,5.07,21.686,18.727,30.851,44.666,29.969.253-7.083-.886-13.921-4.31-20.964,8.139,14.44,31.953,25.51,49.376,22.772,22.641-4.652,38.341-25.634,39.929-45.462,1.979-24.704-4.219-60.955-10.165-84.427,8.458-10.709,10.341-20.059,12.216-33.037.713-4.937.748-10.167.186-15.343,13.594,8.6,34.655,9.045,38.702,7.639,2.897,4.041,7.118,7.984,13.336,7.688,2.86-15.887-21.161-45.802-40.499-54.71Z" fill="#725254"/>
  <path d="M118.905,282.276c1.522-27.498,16.548-38.115,29.494-39.919,3.714.424,9.799,2.648,12.25,5.932-11.45,3.204-33.955,19.404-41.744,33.987Z" fill="#c6a4bf"/>
  <circle cx="160.467" cy="334.357" r="13.068" fill="#fbdad1"/>
  <path d="M105.954,317.022c-13.394,5.886-13.385,21.29-2.735,28.483,10.89,7.355,18.306,10.208,25.526,4.948,8.299-6.047,6.589-13.789,2.492-21.289-2.257-4.131-11.721-18.102-25.282-12.142Z" fill="#fdede4"/>
  <path d="M120.913,346.646c-3.382,0-9.001-3.531-12.934-6.188-2.697-1.822-4.157-4.565-3.907-7.338.241-2.673,2.125-4.915,5.304-6.312,1.132-.498,2.171-.739,3.178-.739,5.093,0,9.826,6.622,11.22,9.173,4.03,7.375,2.146,8.749-.036,10.338-1.286.937-2.117,1.066-2.824,1.066h0Z" fill="#f1cdc2"/>
  <path d="M127.111,242.693c-28.996,46.87-5.931,90.101,3.132,112.88,7.232,18.176,23.257,31.17,41.102,32.468-7.083-11.356-16.196-35.764-23.321-55.653-7.787-21.738-19.615-60.169-20.913-89.695Z" fill="#725254"/>
  <path d="M125.432,516.49c3.707,1.247,9.778,12.528,9.864,16.597.205,9.724-12.416,13.825-17.99,11.546-7.272-2.973-9.667-13.479-8.882-20.619.683-6.205,11.321-9.438,17.009-7.524Z" fill="#845d5f"/>
  <path d="M168.55,515.285c3.707,1.247,11.053,13.028,10.665,17.08-1.066,11.14-13.218,13.342-18.792,11.063-7.272-2.973-9.667-13.479-8.882-20.619.683-6.205,11.321-9.438,17.009-7.524Z" fill="#845d5f"/>
  <path d="M130.197,268.135c-.86-4.69-1.58-9.35-2.13-13.88,5.75-7.38,13.35-10.92,20.33-11.9,2.068.239,4.864,1.033,7.361,2.252.362-2.22.351-4.443-.071-6.642-.42-2.21-1.24-4.29-2.41-6.23-18.86-8.13-42-7.8-55.5-.95-17.07-.02-35.98,4.8-47.47,13.53-3.52,2.67-6.75,5.44-9.69,8.31v.01c-.5,2.47-.54,4.95-.07,7.4,3.39,17.68,31.91,27.07,63.71,20.97,23.914-4.589,42.867-16.63,49.349-29.837-7.266,3.679-16.132,9.933-23.409,16.967Z" fill="#85656c"/>
</svg>