<?xml version="1.0" encoding="UTF-8"?>
<svg id="a" data-name="logo" xmlns="http://www.w3.org/2000/svg" viewBox="0 0 81.968 100">
  <path d="M64.991,34.215c-1.771-1.318-3.71-2.107-5.664-2.457-1.234,1.902-2.914,3.514-5.139,4.912-1.595.997-3.44,1.92-5.656,2.833-.528.217-1.04.421-1.536.612.665,1.083,1.031,2.34,1.032,3.644v1.084c.642-.046,1.29-.078,1.95-.078,3.616,0,7.001.748,10.287,2.251,1.25-.203,2.527-.369,3.85-.449,1.466-.094,2.948-.005,4.413.21,1.955-4.071,1.054-9.112-3.538-12.561Z"/>
  <path d="M64.262,48.961c-.203.012-.397.036-.598.051,1.326,1.2,2.163,2.874,2.285,4.697.172,2.58.264,4.939.285,7.156,2.235.577,4.403,1.423,6.443,2.531-2.147.321-4.32.379-6.472.205-.136,2.459-1.549,4.674-3.749,5.81-1.007.52-2.103.776-3.196.776-1.382,0-2.759-.411-3.94-1.22-.832-.57-1.654-.984-2.514-1.265-.693-.227-1.333-.555-1.902-.965-.007.574-.02,1.104-.03,1.662,2.323,2.127,5.356,4.121,8.959,5.684,9.089,3.981,20.28.239,21.951-9.081,1.618-9.329-7.619-16.674-17.521-16.041Z"/>
  <path d="M58.869,76.28c-1.61-.698-3.117-1.491-4.528-2.344.85,1.374,1.23,2.994,1.004,4.614-.107.769-.223,1.535-.347,2.297-.551,3.386-3.477,5.85-6.876,5.851-.11,0-.631-.018-.78-.018-.782,0-1.611.096-2.472.252,2.989,1.749,6.76,2.406,10.604,1.256,5.495-1.67,8.065-6.099,7.621-10.593-1.45-.3-2.874-.724-4.226-1.315Z"/>
  <path d="M31.188,74.354c-.041-1.449-.075-2.953-.1-4.521-1.188.861-2.62,1.326-4.091,1.326-.184,0-.369-.006-.554-.022-2.196-.175-4.235-.633-6.234-1.401-1.889-.726-3.314-2.223-4.005-4.047-.924-.022-1.848-.083-2.766-.218-1.955,4.071-1.054,9.112,3.538,12.561,2.967,2.207,6.404,2.962,9.591,2.581.122-2.798,1.921-5.301,4.62-6.26Z"/>
  <path d="M16.022,53.965c.06-.841.292-1.639.64-2.38-2.562-.571-5.051-1.474-7.371-2.734,2.987-.447,6.027-.403,8.986.103-.111-.614-.166-1.245-.1-1.892l.254-2.4c.219-2.011,1.302-3.829,2.966-4.979.619-.428,1.302-.723,2.007-.93-.417-.2-.835-.4-1.268-.588-9.089-3.981-20.281-.239-21.951,9.081-1.51,8.708,6.438,15.681,15.556,16.057-.049-2.952.042-6.007.281-9.338Z"/>
  <path d="M23.099,35.967c.283.123.545.264.822.392.22-3.236.429-6.495.573-9.736-.507-.255-.968-.579-1.393-.942-3.135,2.156-4.567,5.54-4.228,8.971,1.45.299,2.873.723,4.226,1.315Z"/>
  <path d="M64.918,53.778c-.133-1.991-1.256-3.782-2.992-4.768-3.807-2.162-7.715-3.214-11.948-3.214-1.022,0-2.011.069-2.981.175v-2.213c-.003-1.55-.611-3.027-1.674-4.125.89-.318,1.82-.677,2.816-1.087,2.162-.89,3.957-1.788,5.5-2.752,2.138-1.343,3.743-2.885,4.901-4.707,1.401-2.197,2.003-4.847,1.79-7.883-.2-2.828-.976-5.323-2.316-7.431-1.397-2.181-3.179-3.84-5.314-4.942-2.012-1.03-4.248-1.551-6.644-1.551l-.345.004c-1.953.039-3.981.347-6.197.941-1.069.287-2.167.614-3.291.948l-1.345.399c-1.175.348-2.226.563-3.122.639-.443.037-.886.059-1.329.059-.652,0-1.252-.046-1.835-.139-.311-.05-.624-.073-.934-.073-1.399,0-2.765.495-3.846,1.414-1.322,1.123-2.086,2.769-2.091,4.503-.003.756-.014,1.513-.033,2.27-.065,2.577,1.531,4.851,3.871,5.718-.19,4.513-.501,9.077-.814,13.551-.98.102-1.93.448-2.759,1.02-1.418.981-2.339,2.529-2.526,4.243l-.254,2.393c-.089.874.037,1.719.305,2.507-1.417,1.026-2.332,2.61-2.458,4.365-.237,3.318-.329,6.358-.278,9.292.041,2.42,1.547,4.573,3.807,5.441,1.904.732,3.849,1.169,5.944,1.336.158.012.315.018.472.018,1.498,0,2.947-.567,4.051-1.595.408-.381.756-.814,1.039-1.283.028,2.805.081,5.406.158,7.853-.152.048-.305.095-.457.141-2.801.858-4.558,3.631-4.137,6.53.107.739.223,1.471.347,2.198.292,1.711,1.319,3.209,2.809,4.098.93.556,1.984.84,3.044.84.638,0,1.279-.103,1.898-.311l1.527-.521c3.645-1.249,7.089-2.429,10.067-2.429.165,0,.685.018.78.018,2.894,0,5.387-2.099,5.856-4.983.123-.755.238-1.514.344-2.274.232-1.663-.25-3.347-1.328-4.634-.836-.998-1.97-1.686-3.219-1.974.061-2.398.101-4.932.12-7.643.719,1.184,1.848,2.111,3.23,2.563.954.312,1.863.768,2.777,1.394,1.007.69,2.18,1.04,3.356,1.04.931,0,1.866-.219,2.723-.661,1.942-1.002,3.176-2.99,3.213-5.175.05-2.89-.041-6.011-.276-9.54ZM62.991,63.281c-.024,1.376-.798,2.622-2.021,3.253-.526.272-1.119.415-1.712.415-.757,0-1.487-.225-2.11-.653-1.09-.748-2.182-1.294-3.336-1.671-1.557-.508-2.591-1.949-2.574-3.587.009-.894.007-1.794-.005-2.699-.003-.283-.227-.514-.51-.526-.2-.008-.402-.013-.607-.013-.617,0-1.255.035-1.939.109-.272.029-.477.258-.477.532.015,5.595-.042,10.453-.174,14.852-.005.142.049.281.147.384.099.103.235.163.378.164l.531.014c1.052.039,2.044.525,2.721,1.334.676.807.98,1.869.835,2.913-.104.743-.217,1.486-.337,2.224-.296,1.816-1.843,3.133-3.681,3.133l-.779-.017c-3.348,0-6.959,1.238-10.781,2.549l-1.519.518c-.382.129-.783.194-1.191.194-.673,0-1.335-.182-1.914-.527-.938-.559-1.582-1.499-1.765-2.576-.121-.708-.234-1.422-.338-2.143-.266-1.836.827-3.563,2.6-4.106.561-.172,1.124-.35,1.687-.531.227-.073.378-.288.369-.527-.151-4.261-.224-9.012-.225-14.523,0-.158-.07-.307-.191-.408-.096-.082-.218-.126-.343-.126-.03,0-.062.003-.092.008-.8.14-1.608.253-2.428.33-.273.026-.482.254-.484.527-.005.684-.005,1.368.003,2.05.011,1.046-.422,2.055-1.186,2.768-.693.647-1.597,1.002-2.546,1.002-.1,0-.2-.004-.3-.011-1.878-.15-3.622-.542-5.326-1.197-1.428-.548-2.367-1.891-2.394-3.421-.047-2.88.042-5.855.275-9.097.083-1.157.713-2.226,1.686-2.86.58-.378,1.25-.573,1.941-.59-1.015-.769-1.616-2.03-1.479-3.354l.251-2.38c.118-1.076.696-2.048,1.588-2.665.626-.433,1.36-.661,2.123-.661.276,0,.553.03.819.09.039.009.078.014.118.014.114,0,.226-.037.319-.106.125-.094.203-.236.213-.391l.04-.592c.368-5.241.749-10.662.944-16.025.01-.273-.188-.51-.459-.547l-.326-.05c-1.835-.295-3.185-1.92-3.138-3.779.019-.773.032-1.547.035-2.318.003-1.091.482-2.123,1.314-2.831.674-.573,1.532-.888,2.417-.888.196,0,.391.015.587.046.702.112,1.415.166,2.183.166.504,0,1.009-.025,1.514-.068,1.046-.088,2.245-.331,3.564-.721l1.329-.394c1.111-.332,2.196-.654,3.251-.937,2.042-.548,3.897-.832,5.669-.867l.309-.003c2.038,0,3.936.44,5.633,1.31,1.776.917,3.278,2.319,4.463,4.168,1.135,1.785,1.8,3.938,1.974,6.398.178,2.552-.31,4.752-1.451,6.542-.979,1.543-2.358,2.859-4.214,4.025-1.429.893-3.12,1.737-5.167,2.58-2.205.907-4.077,1.558-5.888,2.047l-1.085.289c-.228.061-.389.264-.396.5-.005.157.057.4.175.504.108.097.25.224.394.224.011,0,.023,0,.034-.002.175-.025.351-.037.526-.037.817,0,1.623.273,2.271.77.914.701,1.46,1.807,1.46,2.958v2.356c0,1.025-.422,1.967-1.114,2.651,2.024-.445,4.108-.766,6.301-.766,3.84,0,7.392.957,10.858,2.926,1.094.621,1.797,1.741,1.881,2.997.231,3.463.32,6.523.273,9.356Z"/>
  <path d="M25.361,43.848c-.316,0-.627.095-.892.278-.023.016-.034.042-.055.059-.204.353-.408.706-.612,1.059,0,0,0,.001,0,.002l-.203,1.918c.635-1.099,1.27-2.199,1.905-3.299-.047-.004-.094-.018-.142-.018Z"/>
  <path d="M26.64,16.8c-.263.224-.408.536-.48.867.17-.295.341-.59.511-.885-.009.008-.021.01-.031.018Z"/>
  <path d="M42.628,43.962c-.764,1.323-1.528,2.646-2.292,3.969.356-.095.712-.191,1.068-.283.408-.707.816-1.414,1.225-2.121v-1.565Z"/>
  <path d="M46.634,18.062c-.904-.479-1.985-.722-3.21-.722-1.056,0-2.264.182-3.59.539-.627.168-1.178.323-1.642.468-1.39.434-2.341,1.713-2.357,3.169-.027,2.619-.077,5.415-.157,8.669-.026,1.057.449,2.066,1.28,2.72.598.47,1.331.718,2.075.718.291,0,.583-.038.87-.115l.363-.097c1.233-.331,2.442-.791,3.596-1.369,1.144-.574,2.142-1.249,2.973-2.009.872-.793,1.552-1.735,2.015-2.797.471-1.072.677-2.292.625-3.72-.121-3.332-1.611-4.806-2.84-5.455ZM36.808,22.195c.529-.916,1.058-1.833,1.587-2.749.13-.078.273-.135.414-.195-.67,1.16-1.34,2.32-2.009,3.48.002-.174.006-.363.008-.536ZM48.212,25.937c-.593,1.027-1.186,2.054-1.779,3.082-.093.093-.161.2-.26.289-.115.105-.259.196-.381.298.871-1.508,1.741-3.016,2.612-4.524-.041.303-.118.576-.192.855ZM47.737,20.496c-.288.499-.576.999-.865,1.498.104.356.176.753.214,1.195.346-.599.692-1.198,1.037-1.797.037.11.078.212.11.331-.368.637-.735,1.273-1.103,1.91.024.746-.072,1.377-.227,1.96.512-.886,1.024-1.773,1.535-2.659.015.148.032.294.04.453-1.401,2.427-2.802,4.853-4.203,7.28-.15.089-.298.179-.454.264.557-.965,1.114-1.93,1.671-2.895-.085.086-.148.183-.24.267-.415.379-.904.725-1.427,1.054l-1.243,2.153c-.131.058-.264.109-.396.163.395-.684.79-1.368,1.185-2.052-.189.108-.36.225-.561.326-.233.117-.475.208-.713.313-.366.634-.732,1.269-1.099,1.903-.013.004-.025.012-.039.016-.098.032-.2.025-.3.048.344-.597.689-1.193,1.033-1.79-.379.157-.761.294-1.148.422-.278.482-.556.963-.834,1.445-.093-.007-.184-.029-.276-.044.247-.427.493-.854.74-1.281-.173.053-.343.121-.517.167l-.572.152c-.143.247-.285.494-.428.741-.08-.035-.155-.079-.232-.12.102-.177.205-.354.307-.532-.242.062-.487.12-.748.167.004-.159.007-.3.011-.457l-.223.385c-.067-.06-.134-.12-.195-.185.144-.249.287-.497.431-.746.014-.552.027-1.107.039-1.635-.325.562-.649,1.125-.974,1.687-.051-.096-.089-.196-.13-.296.372-.645.745-1.289,1.117-1.934.012-.559.023-1.09.033-1.624-.465.805-.929,1.609-1.394,2.414-.001-.053-.017-.104-.015-.157.003-.123.004-.229.007-.351l1.413-2.447c.01-.552.019-1.085.028-1.615-.469.813-.938,1.625-1.407,2.438.004-.179.008-.365.011-.541.468-.811.937-1.622,1.405-2.434.008-.543.016-1.08.022-1.604-.466.807-.931,1.613-1.397,2.42.003-.183.005-.355.008-.536.465-.806.93-1.611,1.395-2.417.004-.368.009-.745.013-1.106.114-.039.231-.078.352-.118.123-.041.278-.086.416-.128.327-.566.654-1.133.981-1.699l.155-.043c.069-.019.127-.024.195-.042-.321.557-.643,1.114-.964,1.67.325-.096.683-.195,1.078-.301.306-.53.612-1.061.919-1.591.112-.021.235-.056.344-.074-.306.529-.611,1.058-.917,1.588.358-.089.703-.165,1.033-.222.283-.49.566-.98.848-1.47.105-.009.213-.02.316-.025-.276.478-.551.955-.827,1.432.338-.05.645-.065.95-.079.26-.45.52-.9.779-1.35.098.005.189.02.285.029-.249.432-.498.863-.747,1.295.013,0,.03-.004.043-.004.299,0,.556.042.818.079.244-.423.488-.845.732-1.268.09.021.163.065.249.09-.232.402-.464.804-.696,1.205.277.056.52.152.758.254.229-.396.458-.793.686-1.189.061.029.136.039.196.071.016.008.032.02.048.029-.227.393-.453.785-.68,1.178,0,0,.002,0,.003.001.234.123.438.289.621.484.233-.404.467-.809.7-1.213.066.057.13.12.195.185-.242.42-.485.84-.727,1.259.174.231.32.5.438.808.273-.472.545-.944.818-1.416.053.081.104.166.154.255Z"/>
  <path d="M27.904,16.445c-.083-.013-.165-.019-.247-.019-.183,0-.363.033-.534.094-.347.601-.693,1.2-1.04,1.801-.004.535-.012,1.071-.024,1.607.669-1.158,1.337-2.315,2.004-3.472-.051-.008-.109-.004-.16-.012Z"/>
  <path d="M55.973,23.514c-.012-.164-.042-.315-.058-.475-.446.773-.892,1.546-1.338,2.318.022-.201.047-.401.054-.615.411-.711.821-1.422,1.232-2.133-.055-.411-.126-.809-.214-1.195-.358.62-.716,1.24-1.074,1.86-.014-.146-.034-.288-.053-.431.346-.599.692-1.199,1.038-1.798-.092-.35-.199-.687-.319-1.014-.312.54-.623,1.08-.935,1.619-.029-.124-.055-.25-.087-.371.301-.522.602-1.044.904-1.565-.121-.301-.256-.59-.402-.871-.278.482-.556.963-.834,1.445-.041-.104-.074-.216-.118-.318.269-.466.538-.932.807-1.398-.082-.145-.15-.302-.238-.442-.072-.112-.154-.208-.229-.316-.256.444-.512.887-.768,1.331-.051-.088-.092-.185-.145-.27l.746-1.292c-.168-.231-.337-.46-.517-.671-.244.422-.487.844-.731,1.266-.057-.075-.109-.16-.168-.232l.712-1.234c-.184-.204-.364-.413-.56-.596-.236.409-.473.819-.709,1.228-.063-.064-.121-.139-.186-.2.23-.399.46-.797.69-1.196-.2-.176-.402-.348-.614-.504-.23.397-.459.795-.688,1.192-.069-.054-.133-.118-.204-.169.227-.393.453-.785.68-1.178-.216-.149-.442-.28-.669-.408-.226.392-.453.785-.679,1.177-.071-.04-.137-.09-.208-.128-.005-.003-.01-.004-.015-.007.227-.393.454-.786.68-1.178-.015-.008-.029-.019-.045-.027-.218-.111-.448-.199-.674-.293-.228.395-.456.79-.684,1.185-.082-.032-.162-.069-.245-.098.229-.397.459-.794.688-1.192-.248-.095-.504-.172-.762-.247-.233.404-.466.807-.699,1.211-.088-.022-.176-.044-.265-.064.235-.408.471-.816.706-1.224-.263-.069-.533-.123-.806-.171-.242.418-.483.837-.725,1.255-.095-.011-.191-.017-.286-.026.246-.425.491-.851.737-1.276-.28-.042-.563-.071-.852-.091-.254.44-.508.88-.762,1.32l-.256.002c-.016,0-.033.004-.049.004.258-.447.516-.894.775-1.342-.166-.007-.327-.027-.495-.027l-.258.003c-.047,0-.098.011-.145.013-.277.479-.554.959-.83,1.438-.105.008-.211.018-.318.028.277-.479.554-.959.831-1.438-.311.014-.634.053-.953.085-.277.48-.554.959-.831,1.439-.109.017-.231.05-.341.069.285-.493.57-.987.854-1.48-.322.037-.639.061-.971.115-.305.529-.61,1.057-.916,1.586-.115.025-.227.046-.344.074.204-.353.408-.707.612-1.06.095-.165.201-.348.304-.526-.335.06-.685.143-1.032.221-.308.534-.617,1.068-.925,1.602-.118.032-.241.068-.36.101.195-.337.39-.675.585-1.012.116-.2.237-.411.356-.617-.248.059-.474.087-.729.156-.103.028-.214.063-.318.092-.325.562-.649,1.125-.974,1.687-.118.034-.244.072-.363.107.325-.563.651-1.127.976-1.69-.356.1-.722.207-1.085.313-.327.566-.654,1.133-.981,1.699-.015.005-.029.009-.045.013l-.32.095c.328-.568.656-1.135.983-1.703-.353.104-.69.195-1.049.302l-.036.011c-.329.57-.659,1.141-.988,1.711-.122.036-.232.054-.352.088.325-.564.651-1.128.976-1.691l-.95.282c-.048.014-.089.02-.137.034-.315.546-.631,1.093-.946,1.639-.116.027-.238.063-.352.088.315-.546.631-1.093.946-1.639-.361.099-.712.187-1.057.265-.301.521-.602,1.043-.903,1.564-.112.019-.219.031-.329.048.293-.508.587-1.016.88-1.524-.349.073-.67.116-1.001.167-.289.5-.577,1-.866,1.5-.037.003-.08.014-.117.017-.066.006-.133.004-.2.009.284-.492.569-.985.853-1.478-.253.034-.526.092-.767.112-.069.006-.138.004-.207.009-.269.466-.538.931-.806,1.397-.103.003-.206.012-.309.014.269-.466.538-.931.807-1.397-.309.018-.618.036-.927.04-.261.451-.521.902-.781,1.353-.099-.003-.197-.007-.295-.011.257-.445.514-.89.771-1.335-.299-.001-.574-.05-.866-.066-.259.448-.518.897-.777,1.345-.094-.009-.188-.023-.282-.033.257-.445.514-.89.77-1.334-.29-.021-.586-.03-.866-.066-.279.483-.558.967-.837,1.45l-.065.066c0,.016,0,.032,0,.049-.461.798-.922,1.596-1.383,2.395.011.36.132.697.35.959.337-.583.673-1.165,1.009-1.748-.003.179-.004.357-.008.536-.266.461-.532.922-.799,1.383.199.17.429.301.699.355.243-.422.487-.843.73-1.264.093.012.186.027.28.038-.244.422-.487.844-.731,1.265.279.041.575.046.861.075.225-.39.45-.78.675-1.17.084.028.162.067.243.101-.21.365-.421.729-.631,1.094.288.024.568.063.861.075.151-.261.301-.522.452-.783.071.054.136.112.203.171-.123.212-.245.424-.367.636.055.001.105.013.16.014-.011.451-.034.906-.048,1.357.266-.461.532-.922.798-1.383.055.082.109.164.156.251-.325.563-.649,1.125-.974,1.688-.019.556-.036,1.111-.059,1.668.459-.796.918-1.591,1.378-2.386.027.147.035.298.041.451-.479.83-.959,1.661-1.438,2.491-.024.568-.052,1.136-.08,1.705.488-.845.976-1.691,1.464-2.536-.007.19-.02.38-.028.57-.489.847-.978,1.693-1.466,2.54-.029.574-.058,1.148-.09,1.722.491-.851.982-1.701,1.473-2.551-.009.19-.018.38-.028.57-.492.852-.983,1.703-1.475,2.555-.033.583-.068,1.163-.103,1.746.499-.863.997-1.727,1.495-2.59-.01.19-.017.38-.028.57-.502.869-1.003,1.738-1.505,2.607-.037.587-.073,1.174-.112,1.76.511-.885,1.022-1.771,1.533-2.656-.012.195-.023.388-.035.583-.512.887-1.024,1.773-1.535,2.659-.039.593-.079,1.182-.119,1.772.512-.887,1.024-1.773,1.535-2.66-.013.198-.027.393-.04.591-.512.887-1.025,1.775-1.537,2.662-.041.594-.082,1.188-.123,1.78.514-.89,1.028-1.78,1.541-2.669-.013.197-.026.394-.04.591-.514.891-1.028,1.781-1.543,2.672-.013.182-.025.367-.038.548l-.085,1.231,1.547-2.679c-.014.196-.026.396-.04.591-.516.894-1.032,1.787-1.548,2.681l-.115,1.667c-.275-.012-.536-.05-.804-.075-.228.396-.457.792-.686,1.187-.09.008-.176.044-.267.044-.019,0-.038-.005-.057-.005.241-.418.482-.835.723-1.253-.281-.032-.561-.071-.836-.119-.242.419-.484.838-.726,1.257-.086-.018-.179-.039-.268-.058.241-.418.482-.836.724-1.254-.27-.053-.544-.095-.81-.163-.74,1.282-1.481,2.564-2.221,3.846-.004.369.114.712.334.988.37-.64.739-1.28,1.109-1.921l-.068.64-.85,1.472c.182.161.388.297.637.361.018.004.036.006.053.01.24-.416.48-.831.72-1.247.09.021.182.032.272.051-.138.238-.275.477-.413.715-.1.172-.205.355-.307.531.27.064.544.102.815.154.24-.416.48-.831.72-1.247.091.015.18.038.272.051-.199.344-.397.688-.596,1.032-.039.067-.084.145-.124.215.272.048.54.118.815.154.25-.433.5-.867.751-1.3.096.009.195.01.291.017-.102.176-.203.352-.305.528-.148.256-.302.524-.455.788.286.033.584.032.874.052.253-.439.507-.878.76-1.316.098.003.193.016.291.017-.014.024-.028.049-.042.073-.233.403-.475.823-.718,1.243.292.016.577.049.874.053.266-.46.531-.92.797-1.38.105-.003.208-.014.312-.018-.12.208-.24.416-.361.624-.142.246-.298.516-.453.785.316,0,.623-.04.936-.055.271-.47.542-.939.813-1.409.103-.009.209-.008.312-.018-.06.104-.12.208-.18.311-.206.356-.42.727-.634,1.097.312-.019.627-.024.936-.055.283-.49.566-.98.849-1.471.111-.015.221-.036.332-.052-.193.334-.386.668-.579,1.003-.091.157-.192.333-.29.502.334-.037.66-.1.99-.149.291-.504.583-1.009.874-1.513.11-.02.221-.031.332-.052-.159.276-.318.552-.478.827-.128.223-.264.457-.396.686.332-.052.666-.095.995-.157.304-.527.608-1.053.912-1.58.115-.025.232-.053.347-.079-.309.535-.618,1.07-.927,1.605.351-.069.693-.158,1.04-.236l.928-1.606c.116-.029.234-.056.35-.085-.306.529-.611,1.059-.917,1.588-.005.008-.01.017-.014.025.346-.08.697-.15,1.04-.236.319-.552.638-1.105.957-1.657.118-.031.236-.062.355-.093-.303.525-.607,1.051-.91,1.576-.015.027-.032.056-.048.083.358-.091.711-.186,1.066-.279.319-.553.639-1.106.958-1.66l.356-.094c-.32.554-.639,1.107-.959,1.661.233-.062.471-.122.703-.184.121-.033.242-.064.363-.096.32-.554.64-1.109.96-1.663l.172-.045c.091-.023.154-.106.154-.199v-.32c.436-.755.872-1.51,1.307-2.265-.05-.321-.192-.608-.419-.841-.296.513-.593,1.027-.889,1.54v-.47s-.021-.016-.021-.016c.241-.417.482-.834.722-1.251-.223-.159-.48-.245-.747-.273-.289.5-.578,1.001-.867,1.501-.108.025-.217.03-.326.043.299-.518.598-1.035.897-1.553-.091.008-.182.012-.271.036,0,0-.329.089-.774.208-.246.427-.493.854-.739,1.28-.092-.014-.184-.024-.275-.046.219-.379.438-.759.657-1.138-.352.094-.73.196-1.07.286-.108.188-.217.375-.325.563-.077-.041-.155-.078-.229-.125.066-.114.132-.228.198-.342-.176.047-.335.089-.441.116l.029-.968c-.136.235-.271.47-.407.704-.062-.065-.135-.121-.191-.191l.614-1.064.049-1.651-1.116,1.933c-.045-.107-.077-.22-.11-.331.414-.717.828-1.434,1.242-2.152l.049-1.651c-.478.829-.957,1.657-1.435,2.486l.016-.55c.761-1.318,1.521-2.635,2.282-3.953.083-.027.152-.081.239-.101.032-.008.081-.02.142-.035-.308.533-.616,1.067-.924,1.6.191-.038.38-.074.581-.119.161-.037.302-.075.457-.112.317-.549.634-1.098.951-1.648.193-.051.332-.088.356-.094-.319.552-.637,1.104-.956,1.655.153-.038.319-.075.466-.114l.597-.16c.326-.565.653-1.131.979-1.696.121-.037.244-.075.367-.113-.329.57-.659,1.141-.988,1.711.358-.097.719-.202,1.086-.314.34-.588.679-1.177,1.019-1.765.124-.043.256-.094.382-.139-.344.596-.688,1.191-1.032,1.787.367-.116.735-.235,1.117-.368l1.064-1.843c.126-.049.262-.105.391-.156-.358.62-.716,1.24-1.073,1.859.375-.134.754-.272,1.149-.423.368-.637.736-1.274,1.103-1.911.138-.058.267-.115.401-.172-.371.643-.742,1.285-1.113,1.928.342-.134.679-.265,1.039-.413.048-.02.09-.04.138-.06.385-.667.77-1.333,1.155-2,.139-.065.279-.131.414-.196-.389.674-.779,1.349-1.168,2.023.421-.18.828-.36,1.216-.54.412-.714.824-1.427,1.236-2.14.155-.085.301-.171.449-.256-.423.733-.847,1.466-1.27,2.2.447-.214.874-.43,1.278-.646.476-.825.953-1.65,1.429-2.476.193-.141.374-.285.55-.43-.514.89-1.028,1.78-1.542,2.67.331-.186.652-.373.956-.562.162-.102.301-.21.455-.314,1.404-2.432,2.808-4.863,4.212-7.294.003-.32.015-.633-.009-.974ZM30.33,41.77l-.041.593c-.495.858-.991,1.716-1.486,2.574-.14.092-.287.167-.437.235.655-1.134,1.309-2.268,1.964-3.402ZM36.614,37.673c.136-.396.345-.753.615-1.065-.205.355-.41.71-.615,1.065ZM52.88,27.48c-.617.971-1.536,1.831-2.811,2.631-1.205.752-2.676,1.483-4.488,2.23-2.023.832-3.722,1.424-5.344,1.861l-.859.231c-.369.099-.762.195-1.18.289-1.493.338-2.691,1.672-2.736,3.202l-.109,3.702c-.031,1.061.441,2.075,1.274,2.733.599.473,1.334.723,2.08.723.292,0,.585-.039.873-.116l.705-.19v.742c-.404.107-.809.215-1.214.324-3.282.881-6.321,1.696-9.56,1.696-1.235,0-2.406-.119-3.558-.366l.085-.806c.473.095.953.169,1.436.223.124.014.249.021.373.021.782,0,1.543-.274,2.149-.779.703-.586,1.135-1.434,1.199-2.346l.171-2.474c.407-5.805.828-11.812,1.004-17.769.053-1.806-1.332-3.33-3.134-3.448-.278-.018-.554-.043-.825-.074.006-.282.009-.563.013-.845.62.069,1.295.105,2.001.105.633,0,1.266-.029,1.898-.084,1.347-.113,2.85-.413,4.461-.891l1.347-.4c1.07-.319,2.109-.628,3.12-.899,1.686-.453,3.188-.686,4.591-.714l.245-.002c1.29,0,2.497.274,3.553.814,1.051.542,1.97,1.414,2.722,2.588.72,1.134,1.151,2.58,1.273,4.287.111,1.606-.129,2.814-.756,3.799Z"/>
  <path d="M42.629,46.117v-.068c-.275.477-.551.954-.826,1.43.495-.27.826-.779.826-1.363Z"/>
  <path d="M52.272,31.435c.788-.586,1.45-1.211,1.993-1.885.408-.707.817-1.415,1.225-2.123.274-.738.447-1.538.496-2.426-1.238,2.144-2.476,4.289-3.715,6.434Z"/>
  <path d="M26.872,65.754c.042.004.084.005.125.005.129,0,.251-.04.375-.071.4-.692.799-1.384,1.199-2.076-.003-.529.009-1.06.014-1.59-.707,1.224-1.413,2.448-2.12,3.672.139.014.267.05.408.061Z"/>
  <path d="M28.067,65.337c.322-.3.503-.723.499-1.163,0-.011,0-.022,0-.033-.267.462-.533.924-.8,1.385.103-.059.213-.107.301-.19Z"/>
  <path d="M22.118,53.148c-.411.268-.674.714-.709,1.203-.021.297-.025.565-.044.858.438-.759.874-1.514,1.311-2.271-.196.038-.387.099-.558.21Z"/>
  <path d="M32.542,79.706c-.295.239-.488.579-.552.956.184-.319.368-.637.552-.956Z"/>
  <path d="M33.067,79.421c-.031.009-.053.032-.083.043-.334.579-.668,1.157-1.002,1.736.06.414.128.821.194,1.23.642-1.112,1.285-2.225,1.927-3.337-.345.11-.691.223-1.036.329Z"/>
  <path d="M49.667,79.98c.013-.079.023-.159.036-.237-.247.427-.493.855-.74,1.282.359-.234.631-.594.704-1.045Z"/>
  <path d="M60.825,60.477c-.452.784-.905,1.567-1.357,2.351.002-.173.001-.351.002-.526.449-.777.897-1.554,1.346-2.331-.009-.494-.02-.992-.037-1.503-.437.757-.874,1.514-1.311,2.271-.002-.166-.007-.338-.009-.506.434-.751.868-1.503,1.301-2.254-.018-.485-.034-.964-.058-1.465-.425.736-.85,1.473-1.275,2.209-.005-.159-.014-.328-.019-.489.422-.731.845-1.463,1.267-2.195-.025-.466-.052-.941-.083-1.423-.414.717-.828,1.434-1.242,2.152-.008-.157-.017-.32-.025-.479.413-.716.826-1.431,1.24-2.147-.002-.025-.003-.049-.004-.074-.022-.324-.169-.606-.365-.852-.318.55-.635,1.1-.953,1.651-.01-.16-.017-.312-.028-.474.262-.454.524-.908.786-1.362-.081-.071-.136-.167-.231-.221-.141-.08-.284-.133-.425-.209-.227.393-.454.786-.681,1.18-.078-.042-.157-.075-.235-.116.227-.393.454-.786.681-1.18-.234-.123-.469-.234-.704-.347-.227.393-.454.786-.681,1.179-.078-.037-.156-.08-.235-.116.227-.393.454-.786.681-1.179-.235-.11-.468-.247-.704-.347l-.689,1.192c-.083-.034-.168-.054-.252-.086.231-.4.462-.8.693-1.2-.249-.101-.504-.169-.755-.259-.231.4-.462.8-.693,1.2-.084-.029-.168-.059-.252-.086.231-.4.462-.8.693-1.2-.252-.086-.502-.183-.755-.259-.231.4-.462.8-.693,1.2-.087-.024-.175-.046-.262-.069l.703-1.217c-.263-.074-.53-.126-.795-.189-.239.415-.479.829-.718,1.244-.09-.019-.18-.036-.27-.054.239-.415.479-.829.718-1.244-.269-.059-.539-.114-.811-.162-.239.414-.479.829-.718,1.244-.091-.013-.179-.041-.271-.053.239-.415.479-.83.718-1.244-.276-.044-.553-.093-.832-.125-.253.438-.506.876-.759,1.314-.096-.008-.194-.012-.291-.019.253-.438.506-.876.759-1.314-.288-.029-.581-.04-.872-.056-.253.438-.506.876-.758,1.314-.098-.002-.192-.018-.291-.019.253-.438.506-.876.758-1.314-.267-.011-.525-.051-.795-.051-.028,0-.055.005-.083.005-.272.471-.544.941-.815,1.412-.104.005-.208.013-.313.019.272-.471.543-.941.815-1.412-.316.006-.625.039-.938.058-.272.47-.543.941-.815,1.411-.103.01-.21.007-.313.019.272-.47.543-.941.815-1.411-.312.024-.629.023-.938.058-.289.501-.579,1.003-.868,1.504-.111.017-.223.037-.334.056.293-.507.586-1.015.879-1.523-.337.042-.666.113-1.001.167-.293.507-.586,1.015-.879,1.523-.111.022-.223.033-.334.056.293-.508.586-1.015.879-1.523-.333.058-.67.1-1,.167-.309.535-.618,1.07-.927,1.605-.116.027-.233.056-.35.084.312-.54.624-1.081.936-1.621-.353.075-.699.167-1.049.251-.312.541-.624,1.082-.937,1.622-.118.031-.238.062-.356.094.314-.544.628-1.088.943-1.633-.349.086-.703.159-1.049.251-.323.56-.647,1.12-.97,1.68-.12.033-.239.066-.359.099.323-.56.647-1.121.97-1.681-.361.097-.718.197-1.076.297-.323.56-.647,1.121-.971,1.681-.119.034-.24.066-.359.099.324-.56.647-1.121.971-1.681-.268.075-.54.147-.806.223-.091.026-.179.049-.27.075-.324.56-.647,1.121-.971,1.681-.12.033-.239.067-.359.099.323-.56.647-1.121.97-1.681-.361.102-.719.2-1.076.298-.319.553-.638,1.105-.957,1.658-.116.03-.234.055-.35.084.316-.547.632-1.095.948-1.642-.354.096-.709.182-1.061.272-.312.541-.624,1.081-.936,1.622-.117.027-.232.058-.35.084.312-.541.624-1.081.936-1.621-.35.087-.701.175-1.05.253-.301.521-.601,1.042-.902,1.563-.111.021-.223.036-.334.056.295-.511.591-1.023.886-1.534-.335.072-.672.118-1.008.179l-.879,1.523c-.112.016-.222.041-.334.056.293-.508.586-1.015.879-1.523-.334.057-.666.124-1.001.168-.277.481-.555.961-.833,1.442-.104.01-.209.011-.313.02.272-.47.543-.941.815-1.411-.31.037-.626.034-.938.058-.272.47-.543.941-.815,1.412-.105.004-.208.017-.313.02.272-.47.543-.941.815-1.412-.313.019-.623.054-.938.058-.262.453-.523.906-.785,1.359-.099-.003-.196-.008-.294-.012.256-.443.512-.886.768-1.329-.299,0-.59-.022-.883-.037-.255.442-.51.883-.765,1.325-.094-.008-.187-.026-.281-.036.25-.434.501-.868.751-1.301-.288-.019-.573-.05-.856-.083-.246.426-.492.851-.737,1.277-.093-.014-.188-.021-.281-.036.246-.426.492-.851.737-1.277-.278-.037-.557-.074-.832-.125-.238.413-.476.825-.715,1.238-.089-.019-.179-.038-.268-.058.238-.413.476-.825.715-1.238-.268-.055-.537-.108-.803-.176-.236.408-.471.816-.707,1.225-.085-.023-.171-.054-.256-.079.234-.404.467-.809.7-1.213-.256-.07-.511-.157-.766-.239-.234.406-.468.81-.702,1.216-.085-.028-.17-.049-.256-.079.234-.406.468-.811.702-1.216-.098-.033-.197-.057-.295-.092-.164-.059-.335-.085-.505-.087-.556.963-1.11,1.923-1.665,2.884-.035.581-.064,1.155-.089,1.72.499-.865.998-1.729,1.498-2.594-.013.197-.017.378-.03.574-.499.865-.999,1.73-1.497,2.594-.021.555-.039,1.112-.051,1.654.486-.842.973-1.685,1.459-2.527-.009.189-.022.386-.03.573-.478.827-.956,1.655-1.433,2.482-.009.534-.012,1.062-.011,1.586.459-.795.919-1.592,1.378-2.387-.004.18,0,.35-.004.529-.459.796-.919,1.592-1.378,2.387.002.29-.011.596-.006.884.003.18.044.351.104.514.423-.733.846-1.466,1.269-2.199,0,.175-.004.355-.004.529-.375.65-.751,1.3-1.126,1.95.142.23.345.414.589.546.225-.39.45-.78.675-1.17.084.032.172.047.256.078-.233.403-.465.806-.698,1.209.252.096.515.15.77.233.233-.403.465-.806.698-1.209.085.026.171.053.256.078l-.698,1.209c.256.079.51.167.77.233.233-.403.466-.806.698-1.209.089.02.184.03.273.048-.238.413-.477.826-.715,1.239.266.063.546.101.817.151.244-.422.487-.844.731-1.266.092.014.185.029.278.041-.244.422-.487.844-.731,1.266.275.046.551.091.832.124.244-.422.488-.845.731-1.267.027.002.051.01.079.012l.207-.21c0-.099.001-.198,0-.297.462-.799.923-1.599,1.385-2.398.007-.53.001-1.059.014-1.59-.465.806-.93,1.611-1.395,2.416.001-.175,0-.349.001-.524.656-1.137,1.312-2.273,1.968-3.409.124-.054.251-.102.383-.141-.247.427-.493.854-.74,1.281h.018c.306,0,.606-.027.909-.039.27-.467.539-.934.809-1.401.105-.008.215-.023.321-.033-.273.474-.547.947-.821,1.421.313-.017.627-.029.938-.058.282-.488.563-.976.845-1.463.108-.014.218-.029.327-.045-.283.49-.565.979-.848,1.469.325-.035.649-.072.972-.118.293-.507.586-1.015.879-1.522.113-.02.22-.035.334-.057-.296.513-.593,1.027-.889,1.54.338-.052.673-.12,1.009-.182l.856-1.483c.017,0,.033-.005.05-.005.079,0,.153.034.231.04-.267.462-.533.924-.8,1.386.342-.066.683-.133,1.024-.208.199-.345.399-.691.598-1.036.083.028.154.082.234.117-.162.28-.323.56-.485.84.348-.079.695-.154,1.042-.239.041-.072.083-.143.124-.215.03.023.069.031.099.056.04.033.069.075.107.11-.09.156-.181.313-.271.469-.002.533-.003,1.054-.004,1.574.271-.469.542-.938.813-1.408.054.083.109.165.155.253-.323.56-.646,1.12-.97,1.679,0,.531,0,1.047,0,1.565.434-.751.867-1.502,1.301-2.253.024.145.044.29.048.438-.449.779-.899,1.557-1.349,2.336.001.524.003,1.047.005,1.557.452-.784.905-1.567,1.357-2.351,0,.176,0,.346.001.52-.452.782-.903,1.565-1.355,2.347.003.518.006,1.044.01,1.549.45-.779.899-1.557,1.349-2.336,0,.17,0,.352.001.52-.448.776-.896,1.552-1.344,2.327.005.518.011,1.03.018,1.534.446-.773.892-1.546,1.339-2.319.002.173.004.341.005.513-.446.772-.892,1.545-1.338,2.317.008.517.018,1.016.027,1.519.442-.766.885-1.532,1.327-2.298.002.168.003.347.006.513-.441.764-.882,1.528-1.323,2.292.01.511.023,1.009.035,1.506.439-.76.877-1.52,1.316-2.279.003.17.007.335.01.504-.438.759-.876,1.517-1.314,2.276.013.505.027,1.002.042,1.493.434-.752.868-1.504,1.302-2.256.004.164.006.341.01.504l-1.297,2.247c.016.498.033.992.051,1.478.43-.745.861-1.491,1.291-2.236.005.167.01.33.016.495-.429.743-.858,1.487-1.288,2.23.013.344.026.695.04,1.033-.261.084-.521.168-.782.252-.337.584-.675,1.168-1.012,1.752-.123.039-.246.078-.369.117.337-.584.674-1.167,1.011-1.751-.369.119-.738.234-1.107.352-.337.584-.674,1.168-1.011,1.752-.094.032-.153.124-.139.227,0,.004.001.007.002.011-.361.625-.722,1.25-1.082,1.875.022.132.041.266.063.398.039.226.126.438.252.623.324-.561.648-1.123.972-1.684.023.12.056.252.084.377-.186.322-.372.643-.557.965-.098.17-.203.351-.303.525.094.097.176.206.294.276.114.068.236.117.361.154.271-.469.542-.939.813-1.408l.375-.128c-.212.367-.424.735-.636,1.102-.086.15-.183.317-.276.479.056.006.111.023.168.023.169,0,.338-.027.501-.082l.335-.114c.345-.597.689-1.194,1.034-1.791.126-.043.25-.085.375-.128-.236.409-.473.819-.709,1.229-.105.183-.217.375-.325.563l.797-.272c.109-.037.219-.075.329-.112.344-.596.688-1.192,1.032-1.788.125-.042.248-.082.372-.123-.259.449-.518.898-.778,1.347-.082.141-.168.292-.252.436.374-.128.748-.253,1.123-.379.34-.589.68-1.178,1.02-1.767.123-.039.245-.075.367-.114-.338.586-.676,1.172-1.015,1.758.37-.123.74-.242,1.111-.359.333-.577.666-1.154,1-1.731.12-.035.239-.066.359-.1-.33.572-.661,1.145-.991,1.717.364-.113.728-.221,1.092-.325.324-.561.647-1.121.971-1.682.116-.029.232-.053.349-.082-.32.554-.64,1.109-.96,1.663.356-.099.711-.193,1.067-.281.312-.541.625-1.082.937-1.623.112-.023.224-.039.336-.061-.308.533-.616,1.067-.924,1.6.346-.082.691-.159,1.036-.228l.897-1.554c.108-.017.217-.027.325-.041-.295.511-.59,1.022-.885,1.533.335-.062.669-.121,1.002-.169l.852-1.476c.106-.01.213-.023.319-.031-.282.489-.565.978-.847,1.467.323-.041.646-.082.966-.107l.807-1.398c.103-.003.206-.012.309-.013-.269.466-.538.932-.807,1.397.31-.018.621-.039.928-.04.259-.449.518-.897.777-1.346.012,0,.022,0,.034.001.085,0,.186-.061.205-.176.017-.107.032-.215.049-.322.485-.84.969-1.679,1.454-2.519-.056-.116-.096-.239-.18-.34-.101-.12-.234-.201-.363-.285-.237.41-.474.821-.711,1.231-.059-.069-.124-.146-.124-.146-.03-.001-.061,0-.092-.002.234-.406.469-.812.703-1.218-.176-.076-.362-.133-.558-.14-.088-.003-.175-.003-.263-.005-.261.453-.523.905-.784,1.358-.108.001-.208.003-.219.003-.027,0-.053-.007-.08-.008.261-.453.523-.906.784-1.359-.051,0-.102-.003-.153-.003-.251,0-.522.038-.777.047-.227.393-.453.785-.68,1.178-.086-.025-.173-.046-.256-.078.208-.36.416-.721.624-1.081-.31.016-.618.026-.937.057-.127.22-.254.44-.381.661-.072-.05-.136-.112-.204-.168.091-.158.182-.315.273-.473-.064.007-.121.004-.185.011.017-.439.032-.892.048-1.341l-.699,1.21c-.057-.079-.113-.157-.163-.24.294-.509.588-1.018.882-1.527.018-.542.034-1.096.05-1.652-.434.752-.869,1.504-1.303,2.257-.032-.133-.054-.267-.069-.403.462-.801.925-1.602,1.387-2.403.014-.535.027-1.083.039-1.633-.476.824-.952,1.648-1.428,2.473.005-.18.01-.366.015-.548.475-.823.95-1.645,1.425-2.468.011-.53.02-1.072.029-1.617-.47.814-.94,1.628-1.41,2.442.004-.182.009-.36.013-.544.469-.811.937-1.623,1.406-2.434.008-.527.015-1.062.021-1.603-.467.808-.933,1.616-1.4,2.424.003-.179.006-.357.009-.538.465-.806.931-1.612,1.396-2.418.005-.525.011-1.052.014-1.591-.461.799-.923,1.598-1.384,2.397.002-.17.002-.357.004-.529.461-.798.922-1.596,1.383-2.395.003-.524.007-1.043.008-1.58-.46.796-.919,1.592-1.379,2.388.001-.177.003-.351.004-.529.459-.794.917-1.588,1.376-2.382.001-.514.001-1.04,0-1.568-.455.788-.91,1.576-1.365,2.364,0-.168,0-.353,0-.522.455-.788.91-1.576,1.365-2.364,0-.51-.003-1.036-.005-1.558-.454.786-.907,1.571-1.361,2.357,0-.174,0-.347,0-.522.453-.784.906-1.569,1.359-2.353-.002-.361-.002-.709-.004-1.076.241-.046.464-.081.695-.12.292-.505.583-1.01.875-1.515.11-.015.213-.021.321-.035-.287.497-.574.994-.861,1.492.339-.055.665-.099.984-.139.28-.486.561-.971.841-1.457.105-.009.213-.019.317-.027-.277.48-.555.961-.832,1.441.326-.036.641-.062.952-.082.268-.464.536-.929.804-1.393.102-.002.207-.011.308-.011-.266.461-.532.922-.798,1.383.311-.016.617-.025.919-.026.256-.444.513-.888.769-1.332.098.004.196.008.294.013-.255.442-.511.885-.766,1.327.299.004.592.018.883.037.25-.432.499-.865.749-1.297.092.014.183.03.272.051-.242.42-.484.839-.727,1.258.285.024.563.068.842.107.21-.363.42-.727.629-1.09.077.041.149.091.222.137-.19.33-.381.66-.571.989.101.016.204.022.304.04.121.122.241.247.362.373l.524-.908c.064.067.119.142.177.215-.219.379-.438.759-.657,1.138.013.518.008,1.026.015,1.541.37-.64.739-1.28,1.109-1.92.045.107.076.219.11.331-.405.701-.809,1.402-1.214,2.103.005.514.016,1.031.015,1.541.452-.782.903-1.564,1.355-2.347.003.173,0,.345.002.518-.451.781-.902,1.562-1.352,2.342,0,.083.003.169.002.252-.003.315.096.609.259.861.366-.634.732-1.268,1.098-1.902,0,.172.003.346.002.518l-.923,1.599c.176.189.387.348.645.432.003,0,.005.002.008.003.228-.395.457-.791.685-1.186.083.029.161.07.244.1-.228.395-.457.791-.685,1.186.248.086.487.201.731.3.228-.396.457-.791.685-1.187.081.034.163.064.244.1-.228.396-.457.791-.685,1.187.242.104.493.182.731.3.227-.393.454-.786.681-1.179.076.038.149.093.225.133-.226.392-.453.784-.679,1.176.227.118.449.268.674.399.226-.392.453-.784.679-1.176.075.044.15.088.225.133-.226.392-.453.784-.679,1.176.224.136.451.249.674.399.226-.392.453-.784.679-1.176.074.049.149.082.223.132h.002c-.225.39-.45.78-.675,1.17.239.141.504.223.774.225.53-.918,1.06-1.836,1.59-2.753.002-.509,0-1.026-.008-1.553ZM38.026,76.473c.003.095.006.199.009.293.004.094-.03.18-.035.273-.495.857-.989,1.714-1.484,2.57-.135.086-.281.155-.429.221.646-1.119,1.292-2.238,1.939-3.358ZM44.174,57.992c0-.085,0-.161,0-.246,0-.111.018-.217.029-.325.449-.777.897-1.555,1.346-2.332.145-.104.298-.196.46-.275-.612,1.059-1.223,2.119-1.835,3.179ZM55.75,60.527c.006-1.256-.007-2.521-.037-3.796-.039-1.635-1.249-3.004-2.868-3.242-.89-.13-1.783-.195-2.728-.195-1.283,0-2.632.121-4.126.371-1.623.272-2.81,1.68-2.802,3.326.033,6.911-.04,12.777-.224,17.933-.034.95.336,1.869,1.02,2.53.627.608,1.466.945,2.334.945.075,0,.152-.003.228-.008.34-.023.673-.037,1.003-.041-.029.197-.06.392-.09.587-.044,0-.084,0-.118,0-4.096,0-8.235,1.419-12.239,2.79l-.637.218c-.026-.16-.051-.32-.075-.48.68-.213,1.359-.433,2.041-.653,1.432-.463,2.67-1.917,2.61-3.42-.201-5.021-.288-10.801-.267-17.666.003-1.02-.459-1.988-1.255-2.627-.602-.483-1.345-.739-2.102-.739-.245,0-.491.027-.735.082-1.994.447-3.645.68-5.197.731-1.784.06-3.209,1.504-3.244,3.288-.019.959-.028,1.917-.025,2.874-.935-.126-1.847-.34-2.741-.647-.025-2.275.042-4.635.203-7.173,1.831.554,3.685.824,5.643.824,3.735,0,7.258-.997,10.666-1.96,3.245-.918,6.601-1.867,9.99-1.867,2.906,0,5.616.699,8.269,2.136.167,2.609.249,4.973.248,7.173-.893-.52-1.802-.947-2.746-1.291Z"/>
  <path d="M59.979,64.612c.513-.265.839-.79.849-1.368.004-.224.001-.46.003-.687-.414.716-.827,1.433-1.241,2.149.131-.029.266-.031.389-.094Z"/>
  <path d="M47.607,81.284c.235.005.494.014.512.014.15,0,.291-.037.429-.077.42-.728.841-1.457,1.262-2.185.063-.41.129-.82.187-1.232.028-.198.005-.396-.041-.586-.783,1.356-1.565,2.711-2.348,4.067Z"/>
  <path d="M46.247,8.258c.73.008,1.443.072,2.144.171.723-1.209,1.027-2.314,1.167-3.042.242-1.295-.151-2.45-1.054-3.212-.552-.461-1.262-.726-2.096-.726-.005,0-.009,0-.014,0-.27.012-.515.106-.675.26-.16.154-.213.352-.148.54.134.388.208.777.224,1.19.036.997-.233,2.074-.879,3.343-.148.291-.015.625.332.819.37.206.696.428,1,.657Z"/>
  <path d="M53.17,9.913c.998.515,1.909,1.162,2.759,1.897.991-.456,1.075-1.055,1.057-1.268-.084-1.098-2.145-2.405-5.224-2.85-.081-.011-.161-.017-.239-.014-.39.012-.73.187-.852.457-.101.223-.228.459-.356.695.987.271,1.946.617,2.854,1.082Z"/>
  <path d="M38.334,8.287c-1.032.537-1.773,1.185-2.068,1.799,1.013-.302,2.012-.599,2.98-.859,1.592-.427,3.088-.702,4.538-.85-.054-.029-.095-.062-.151-.091-.747-.39-1.016-1.002-.709-1.543.723-1.277,1.041-2.342,1.02-3.302-.047-1.996-1.515-2.933-2.399-3.331C41.388.041,41.183,0,40.985,0c-.197,0-.401.04-.557.11-.883.394-2.355,1.33-2.403,3.332-.021.96.298,2.024,1.02,3.302.307.54.036,1.154-.711,1.544Z"/>
  <path d="M33.606,8.483c.134.222.421.379.757.409.026.003.054.004.081.005.309.008.609-.093.809-.271.412-.37.905-.714,1.465-1.024.348-.193.482-.527.335-.817-.642-1.274-.916-2.352-.878-3.345.015-.417.089-.805.222-1.19.064-.183-.08-.377-.227-.529-.149-.152-.474-.253-.732-.275-.703,0-1.416.266-1.973.73-.905.762-1.296,1.917-1.056,3.212.142.736.447,1.862,1.195,3.095Z"/>
  <path d="M25.403,11.411c.723-.248,1.483-.387,2.254-.387.365,0,.731.029,1.097.087.529.085,1.076.125,1.673.125.414,0,.828-.019,1.242-.055.688-.058,1.503-.228,2.387-.465-.098-.212-.282-.393-.568-.471-.789-.211-1.396-.632-1.708-1.167-.19-.326-.346-.64-.482-.943-.12-.269-.464-.445-.852-.457-.079-.003-.158.002-.239.014-3.078.445-5.14,1.752-5.224,2.85-.013.154.027.51.421.869Z"/>
  <path d="M16.468,34.011c-1.86-.95-3.913-1.502-6.043-1.594-1.131-.05-2.299.113-3.405.411-1.819.49-2.938,2.194-2.609,3.931,1.061-.849,3.067-1.661,4.877-1.849,2.231-.624,4.654-.869,7.173-.641-.004-.086.01-.172.007-.258Z"/>
  <path d="M5.154,22.074c1.69-.258,3.423-.296,5.137-.113,3.436.367,6.658,1.707,9.221,3.706.608-.672,1.318-1.261,2.076-1.803-.301-.523-.542-1.084-.7-1.677-.368-.255-.741-.506-1.129-.734-5.431-3.2-12.524-3.951-18.631-2.044.334,1.767,2.126,2.957,4.027,2.666Z"/>
  <path d="M73.205,46.232c-.559-.272-1.152-.451-1.749-.582-.149.539-.31,1.075-.528,1.591,1.491.395,2.883.95,4.177,1.62-.126-1.1-.81-2.1-1.899-2.629Z"/>
  <path d="M16.814,30.76c.048-.199.063-.403.122-.599.193-.635.454-1.237.745-1.822-1.86-1.122-4.463-2.223-7.847-2.448-1.42-.095-2.946.106-4.39.489-1.637.435-2.619,1.997-2.324,3.559,1.644-.91,4.255-1.745,6.526-1.601,3.206.213,5.6,1.374,7.167,2.421Z"/>
  <path d="M73.63,39.357c-.773-.231-1.558-.355-2.309-.386.262.814.439,1.648.52,2.499,1.536.233,3.133,1.037,3.848,1.805.158.169.36.269.571.337.345-1.825-.737-3.689-2.631-4.255Z"/>
  <path d="M62.21,21.452c-.343.202-.648.454-.976.677.041.335.102.658.126,1.002.09,1.288.003,2.493-.182,3.651,2.717-2.618,6.459-4.39,10.499-4.821,1.713-.183,3.446-.145,5.137.113,1.901.29,3.693-.899,4.027-2.666-6.107-1.907-13.2-1.156-18.631,2.044Z"/>
  <path d="M76.524,26.38c-1.443-.383-2.97-.585-4.39-.489-5.162.343-8.546,2.701-10.132,4.095.901.304,1.775.683,2.612,1.15,1.523-1.125,4.11-2.558,7.707-2.797,2.271-.144,4.882.691,6.526,1.601.296-1.562-.687-3.124-2.324-3.559Z"/>
  <path d="M74.948,32.828c-1.106-.298-2.274-.461-3.405-.411-1.399.061-2.762.324-4.062.761.704.633,1.32,1.316,1.863,2.036.756-.184,1.529-.311,2.32-.346,2.016-.092,4.628.879,5.893,1.891.329-1.737-.791-3.442-2.609-3.931Z"/>
  <path d="M36.077,89.576c-.513.173-1.04.262-1.57.312-.405,1.355-.983,2.668-1.745,3.64-1.723-.011-2.131,2.66-.265,3.01,2.78.287,3.927-3.779,4.165-7.162l-.585.199Z"/>
  <path d="M30.277,88.956c-.308-.184-.577-.416-.85-.642-.277.42-.601.812-.985,1.109-1.177.946-2.575,1.074-3.85.695-2.002-.242-2.381,2.796-.384,3.057,2.853.441,5.756-1.312,6.926-3.785-.293-.124-.58-.268-.857-.434Z"/>
  <path d="M41.766,87.694c-.532.158-1.071.325-1.619.504-.225,3.295-.696,10.185-.696,10.185-.09,2.158,3.157,2.152,3.066,0l-.729-10.67c-.008-.006-.014-.014-.022-.02Z"/>
  <path d="M57.376,90.118c-.136.04-.277.05-.415.079-.263.096-.516.204-.789.287-1.366.409-2.743.614-4.121.656,1.446,1.484,3.593,2.363,5.709,2.036,1.996-.261,1.617-3.299-.384-3.057Z"/>
  <path d="M49.206,93.528c-.621-.792-1.116-1.813-1.499-2.895-.818-.208-1.605-.475-2.363-.802.306,3.281,1.471,6.982,4.127,6.708,1.866-.35,1.459-3.021-.265-3.01Z"/>
</svg>